<svg xmlns="http://www.w3.org/2000/svg" viewBox="0 0 345.67 36"><title>Asset 1</title><g id="Layer_2" data-name="Layer 2"><g id="Layer_1-2" data-name="Layer 1"><path d="M32,22c-1.51,0-3.19-12.07-4-17.16-.25-1.69-1.25-2.46-2.51-2.31a2.37,2.37,0,0,0-1.91,2.83c.25,2,.64,5.59.91,7.87.05.41.05.69-.18.8s-.34-.12-.46-.59c-.73-2.31-2.58-9-3.33-11.59A2.27,2.27,0,0,0,17.66.09a2.54,2.54,0,0,0-1.57,3.19C16.81,5.66,18,10.51,19,14c.16.59.14.73,0,.78s-.29-.09-.46-.55c-1.07-2.46-3.93-8.88-5.2-11.36a2.3,2.3,0,0,0-3.22-1.26c-1,.5-2.08,1.74-1,4,1.32,2.72,4,8.62,5,10.86.21.46.16.66.05.75s-.36-.09-.66-.48c-1.48-2-4.58-6.46-6.12-8.49a2.39,2.39,0,0,0-3.36-.61,2.68,2.68,0,0,0-.39,3.7c5.09,7.28,8.06,11.36,8.06,13.37,0,1.1-1,1.51-2.31,1.51-2.1,0-3.77-2-6.28-2C1.35,24.2,0,25.25,0,26.69s1.48,1.44,5.89,3.6S13.39,36,20.47,36c6.27,0,10.43-4.72,11.66-4.72S37.53,36,43.8,36c7.09,0,10.08-3.54,14.58-5.71s5.89-2.17,5.89-3.6S62.92,24.2,61.1,24.2c-2.51,0-4.18,2-6.28,2-1.28,0-2.31-.41-2.31-1.51,0-2,3-6.09,8.06-13.37a2.68,2.68,0,0,0-.39-3.7,2.39,2.39,0,0,0-3.36.61c-1.55,2-4.65,6.46-6.12,8.49-.3.39-.48.57-.66.48s-.16-.29.05-.75c1-2.24,3.7-8.14,5-10.86,1.12-2.26,0-3.51-1-4a2.3,2.3,0,0,0-3.22,1.26c-1.26,2.47-4.13,8.9-5.2,11.36-.18.46-.34.61-.46.55s-.2-.2,0-.78c1-3.51,2.24-8.35,3-10.74A2.54,2.54,0,0,0,46.61.09a2.27,2.27,0,0,0-2.92,1.76c-.75,2.55-2.6,9.28-3.33,11.59-.12.46-.25.61-.46.59s-.23-.39-.18-.8c.27-2.28.66-5.86.91-7.87a2.37,2.37,0,0,0-1.91-2.83c-1.26-.14-2.26.62-2.51,2.31-.8,5.09-2.47,17.16-4,17.16"/><path d="M78.67,14.46C78.67,6.19,84.5,0,92.34,0a12.46,12.46,0,0,1,11.81,7.69l-3.26.68a9.33,9.33,0,0,0-8.62-5.22C86.26,3.15,82,7.87,82,14.31s4.12,10.81,9.91,10.81a9.75,9.75,0,0,0,9.3-6.44l3.08.68c-2.08,5.62-6.44,8.87-12.35,8.87C84.18,28.23,78.67,22.58,78.67,14.46Z"/><path d="M106.86,18a9.88,9.88,0,1,1,19.75,0,9.88,9.88,0,1,1-19.75,0Zm16.53,0a6.67,6.67,0,1,0-13.31,0,6.67,6.67,0,1,0,13.31,0Z"/><path d="M129.84,20.9V8.23h3.11V20.9c0,2.9,1.25,4,3.54,4A6.59,6.59,0,0,0,143,20V8.23H146V27.55H143V24.84a8.38,8.38,0,0,1-6.66,3.08C132.13,27.91,129.84,25.48,129.84,20.9Z"/><path d="M150.38,8.23h3.11v2.43a9,9,0,0,1,6.58-2.79c4,0,6.51,2.43,6.51,7.16V27.55h-3.08V15.21c0-3.18-1.61-4.33-3.94-4.33a6.21,6.21,0,0,0-6.08,4.51V27.55h-3.11Z"/><path d="M173.31,23.37V11.2h-3.15v-3h3.15V2.83h3.08v5.4h3.83v3h-3.83V23c0,1.54.72,1.86,1.75,1.86h2.25v2.93c-.72.07-1.61.14-2.4.14C174.67,27.91,173.31,26.62,173.31,23.37Z"/><path d="M184,2.5a2.18,2.18,0,0,1,4.37,0,2.18,2.18,0,1,1-4.37,0Zm.64,6.08h3.08v19h-3.08Z"/><path d="M192.67,8.23h3.11v2.43a9,9,0,0,1,6.58-2.79c4,0,6.51,2.43,6.51,7.16V27.55H205.8V15.21c0-3.18-1.61-4.33-3.94-4.33a6.21,6.21,0,0,0-6.08,4.51V27.55h-3.11Z"/><path d="M213,30.67l2.9-.79A5.4,5.4,0,0,0,220.86,33c3,0,5.22-2.15,5.22-5.51V24.62a6.82,6.82,0,0,1-5.55,2.79c-4.87,0-8.27-4.29-8.27-9.77s3.33-9.77,8.34-9.77a6.85,6.85,0,0,1,5.48,2.58V8.23h3.11V27.41c0,5.44-3.69,8.59-8.34,8.59A8.06,8.06,0,0,1,213,30.67Zm13.06-13.06c0-3.86-2.22-6.73-5.26-6.73s-5.4,3-5.4,6.69,2.36,6.76,5.4,6.76S226.09,21.51,226.09,17.61Z"/><path d="M244.34.64h3.08V12.31h15V.64h3.08V27.55h-3.08V15.32h-15V27.55h-3.08Z"/><path d="M269.24,22.62c0-2.86,2.29-4.72,5.4-5.69,3.72-1.07,7-1.5,7-3.58,0-1.4-1.5-2.47-4-2.47-2.25,0-4,.89-4.69,2.83l-3-.82c.93-3.47,4.08-5,7.62-5,4.37,0,7.44,2.29,7.44,7v9A1.29,1.29,0,0,0,287,25v2.61a5.11,5.11,0,0,1-1.65.32A3.49,3.49,0,0,1,282,24.62c-2.22,2.47-4.47,3.36-6.66,3.36C271.89,28,269.24,25.69,269.24,22.62ZM282,20.68V17.21c-2.54,2.43-9.63,1.57-9.63,5.19,0,1.65,1.47,2.58,3.22,2.58A7.67,7.67,0,0,0,282,20.68Z"/><path d="M289.78,8.23h3.11v2.43a9,9,0,0,1,6.58-2.79c4,0,6.51,2.43,6.51,7.16V27.55h-3.08V15.21c0-3.18-1.61-4.33-3.94-4.33a6.21,6.21,0,0,0-6.08,4.51V27.55h-3.11Z"/><path d="M309.35,17.93c0-5.65,3.47-10.06,8.23-10.06a7.36,7.36,0,0,1,5.83,2.9V.5h3.15V27.55h-3.15V25a7,7,0,0,1-5.83,3C312.61,28,309.35,23.55,309.35,17.93Zm14.06.25c0-3.83-2.25-7.12-5.58-7.12S312.5,14.14,312.5,18s2.11,6.94,5.44,6.94S323.41,22,323.41,18.18Z"/><path d="M330,22.26l3.11-.72C333.79,24,335.62,25,338,25c2.22,0,4.44-.86,4.44-2.51s-2.08-2.51-5-3.33c-3.9-1.18-6.87-2.58-6.87-5.9s2.79-5.37,7-5.37c3.61,0,6.48,1.54,7.55,5l-3,.79c-.79-1.93-2.5-2.65-4.69-2.65-2.47,0-3.76.89-3.76,2.11,0,1.54,2,2.33,4.87,3.15,4.47,1.14,7.12,2.86,7.12,5.94,0,3.47-3.36,5.76-7.59,5.76C334.26,28,331.14,26.12,330,22.26Z"/></g></g></svg>