<svg xmlns="http://www.w3.org/2000/svg" viewBox="0 0 590.43 182.74"><defs><style>.cls-1,.cls-3,.cls-4{fill:none;stroke-miterlimit:10;}.cls-1{stroke:#000;stroke-width:1.5px;}.cls-2{fill:red;}.cls-3,.cls-4{stroke:red;stroke-linecap:round;stroke-width:3px;}.cls-4{stroke-dasharray:0 9;}</style></defs><title>countinghands-steps-170924-01</title><g id="Layer_2" data-name="Layer 2"><g id="Layer_1-2" data-name="Layer 1"><path class="cls-1" d="M77.35,132.73C74,131.29,81.69,102.6,84.72,90.4c1-4-.46-6.71-3.43-7.58a5.78,5.78,0,0,0-6.94,4.32l0,.21c-1.34,4.73-3.89,13.16-5.46,18.53-.28,1-.55,1.6-1.17,1.62s-.65-.59-.47-1.76c.56-5.88,2.78-22.66,3.57-29.19A5.54,5.54,0,0,0,66.55,70L66,69.88a6.19,6.19,0,0,0-6.56,5.66c-.65,6-2.6,18-3.68,26.84-.2,1.48-.38,1.77-.74,1.75s-.57-.48-.51-1.67c-.06-6.54-.36-23.68-.85-30.45a5.61,5.61,0,0,0-6-5.9c-2.72.17-6.33,1.92-6.06,8,.37,7.36.77,23.16.88,29.14,0,1.23-.27,1.63-.6,1.73s-.72-.55-1-1.71c-1.42-5.9-4.13-18.86-5.65-24.89a5.83,5.83,0,0,0-6.84-4.6l-.12,0a6.54,6.54,0,0,0-4.4,7.93C28.34,103,31.12,115,29.2,119.47c-1,2.47-3.68,2.44-6.62,1.19-4.71-2-6.56-8.08-12.19-10.47-3.93-1.72-8-.65-9.33,2.58s2,4.64,9.79,13.69,11.39,20,27.29,26.71c14.07,6,27.91-.66,30.67.51s7.62,15.74,21.7,21.71c15.91,6.76,26,1.66,38.17,1.07s15.29.74,16.65-2.47-.66-6.88-4.74-8.61c-5.63-2.39-11.29.51-16-1.49-2.87-1.22-4.79-3.12-3.75-5.59,1.91-4.49,12.54-10.81,30.83-22.33a6.54,6.54,0,0,0,2.65-8.68,5.83,5.83,0,0,0-8-1.9l-.1.06c-5.38,3-16.59,10.07-21.83,13.23-1,.59-1.62.82-1.94.45s-.08-.8.83-1.64c4.38-4.08,16.06-14.75,21.57-19.61,4.67-4,3.34-7.88,1.57-9.93a5.61,5.61,0,0,0-8.43-.24c-5.18,4.34-17.75,16-22.5,20.54-.84.86-1.34,1-1.56.8s-.26-.64.74-1.75c5.59-6.93,13-16.61,17-21.25a6.19,6.19,0,0,0-.59-8.6,5.54,5.54,0,0,0-8.23,1.17c-4.11,5-14.68,18.35-18.52,22.84-.71.92-1.14,1.13-1.59.89s-.14-1.09.36-2c2.78-4.86,7.06-12.52,9.54-16.8a5.78,5.78,0,0,0-1.41-8.05l-.18-.12c-2.69-1.51-5.66-.76-7.83,2.79-6.65,10.66-21.89,36.16-25.33,34.71"/><path class="cls-2" d="M30.77,55.13a7.81,7.81,0,0,0-5.48,4.33l-.49,1-.87-.75a7.86,7.86,0,0,0-12.84,7.57c1.55,7.34,15.28,12.31,18,13.21,2.11-1.8,12.73-11.34,11-19.33A7.87,7.87,0,0,0,30.77,55.13Z"/><path class="cls-1" d="M294.88,137.93c-3.48-1.2,2.23-30.36,4.4-42.74.77-4.09-.93-6.66-4-7.32a5.78,5.78,0,0,0-6.62,4.79l0,.22c-1,4.81-3,13.4-4.15,18.87-.21,1-.43,1.63-1.05,1.7s-.69-.55-.59-1.73c.15-5.91,1.2-22.8,1.52-29.37a5.54,5.54,0,0,0-4.68-6.28l-.52-.05a6.19,6.19,0,0,0-6.15,6.11c-.23,6.06-1.34,18.19-1.8,27-.1,1.49-.26,1.79-.62,1.8s-.6-.44-.62-1.63c-.51-6.52-2-23.59-3-30.32a5.61,5.61,0,0,0-6.42-5.46c-2.7.36-6.18,2.36-5.48,8.43C256,89.3,257.51,105,258,111c.12,1.23-.16,1.65-.48,1.77s-.76-.49-1.14-1.63C254.6,105.34,251,92.59,249,86.69a5.83,5.83,0,0,0-7.15-4.11l-.12,0A6.54,6.54,0,0,0,238,90.84c6,20.83,9.56,32.59,8,37.22-.87,2.54-3.5,2.69-6.52,1.65-4.84-1.67-7.1-7.6-12.89-9.6-4-1.44-8-.09-9.13,3.23s2.27,4.5,10.72,13,12.76,19.12,29.08,24.74c14.46,5,27.79-2.6,30.63-1.63s8.7,15.17,23.16,20.15c16.35,5.63,26.05-.16,38.15-1.59s15.3-.33,16.44-3.62-1.14-6.81-5.33-8.26c-5.79-2-11.23,1.29-16.07-.37-3-1-5-2.78-4.13-5.32,1.59-4.61,11.75-11.66,29.2-24.43a6.54,6.54,0,0,0,2-8.84,5.83,5.83,0,0,0-8.13-1.33l-.1.07c-5.16,3.38-15.85,11.2-20.85,14.72-1,.66-1.56.93-1.9.58s-.14-.8.71-1.69c4.08-4.37,15-15.83,20.15-21.07,4.38-4.32,2.79-8.09.87-10a5.61,5.61,0,0,0-8.42.35c-4.87,4.69-16.59,17.24-21,22.06-.78.92-1.27,1.14-1.5.9s-.3-.62.62-1.8c5.09-7.3,11.79-17.47,15.44-22.38A6.19,6.19,0,0,0,346,99a5.54,5.54,0,0,0-8.13,1.74c-3.75,5.28-13.36,19.33-16.88,24.08-.64,1-1.06,1.21-1.53,1s-.22-1.08.22-2c2.43-5,6.17-13,8.35-17.42a5.78,5.78,0,0,0-2-7.93l-.19-.11c-2.79-1.32-5.7-.36-7.62,3.33-5.89,11.1-19.32,37.6-22.85,36.39"/><path class="cls-2" d="M266.43,55a7.81,7.81,0,0,0-6,3.61l-.62,1-.77-.85a7.86,7.86,0,0,0-13.69,5.9C246,72.08,259,78.74,261.52,80c2.32-1.52,14.06-9.64,13.39-17.79A7.87,7.87,0,0,0,266.43,55Z"/><path class="cls-1" d="M513.05,134.25c-3.56-1,.1-30.44,1.41-42.94.48-4.14-1.39-6.58-4.45-7a5.78,5.78,0,0,0-6.27,5.24q0,.11,0,.22c-.67,4.87-2,13.57-2.82,19.11-.14,1-.32,1.66-.93,1.77s-.73-.5-.71-1.68c-.26-5.9-.4-22.83-.53-29.4a5.54,5.54,0,0,0-5.1-5.94h-.52a6.19,6.19,0,0,0-5.71,6.52c.19,6.06-.06,18.23.09,27.09,0,1.49-.13,1.81-.49,1.84s-.63-.4-.74-1.59c-1-6.47-3.65-23.4-5.08-30a5.61,5.61,0,0,0-6.79-5c-2.67.55-6,2.79-4.88,8.79,1.39,7.24,4,22.83,4.92,28.74.2,1.22,0,1.66-.36,1.8s-.79-.44-1.25-1.55c-2.22-5.64-6.71-18.11-9.06-23.86a5.83,5.83,0,0,0-7.42-3.6l-.11,0A6.54,6.54,0,0,0,453,91.24c7.39,20.36,11.81,31.84,10.55,36.58-.69,2.59-3.31,2.93-6.39,2.1-4.95-1.33-7.62-7.09-13.53-8.67-4.13-1.16-8,.46-8.88,3.86s2.58,4.33,11.6,12.2,14.06,18.18,30.74,22.65c14.77,4,27.55-4.53,30.44-3.76s9.74,14.53,24.51,18.48c16.7,4.47,26-2,37.95-4.25s15.24-1.39,16.15-4.76-1.61-6.72-5.9-7.87c-5.91-1.58-11.11,2.07-16.05.75-3-.81-5.18-2.42-4.49-5,1.26-4.71,10.91-12.45,27.42-26.4a6.54,6.54,0,0,0,1.42-9,5.83,5.83,0,0,0-8.21-.76l-.09.08c-4.91,3.73-15,12.28-19.77,16.13-1,.73-1.49,1-1.86.71s-.19-.78.59-1.73c3.77-4.64,13.85-16.84,18.63-22.42,4.06-4.62,2.22-8.27.17-10.05a5.61,5.61,0,0,0-8.38.94c-4.53,5-15.34,18.36-19.42,23.48-.71,1-1.19,1.22-1.43,1s-.34-.6.49-1.84c4.57-7.64,10.55-18.25,13.84-23.4a6.19,6.19,0,0,0-1.78-8.43,5.54,5.54,0,0,0-8,2.3c-3.38,5.53-12,20.22-15.16,25.2-.57,1-1,1.28-1.46,1.1s-.3-1.06.08-2c2.07-5.2,5.25-13.39,7.11-18a5.78,5.78,0,0,0-2.52-7.78l-.2-.1c-2.88-1.12-5.71,0-7.37,3.86-5.1,11.48-16.65,38.86-20.25,37.89"/><path class="cls-2" d="M500.5,55.07a7.81,7.81,0,0,0-6.28,3.05l-.7.91-.69-.92a7.86,7.86,0,0,0-14.16,4.64c-.06,7.5,12.29,15.3,14.7,16.75,2.45-1.31,14.87-8.35,14.93-16.51A7.87,7.87,0,0,0,500.5,55.07Z"/><line class="cls-3" x1="488.78" y1="45.77" x2="488.78" y2="45.77"/><path class="cls-4" d="M481.9,40C451.73,15.81,414.31,1.5,373.78,1.5c-42.1,0-80.84,15.44-111.59,41.33"/><line class="cls-3" x1="258.78" y1="45.77" x2="258.78" y2="45.77"/><path class="cls-4" d="M251.9,40C221.73,15.81,184.31,1.5,143.78,1.5c-42.1,0-80.84,15.44-111.59,41.33"/><line class="cls-3" x1="28.78" y1="45.77" x2="28.78" y2="45.77"/></g></g></svg>